%TF.GenerationSoftware,KiCad,Pcbnew,9.0.3*%
%TF.CreationDate,2025-08-23T20:31:56+05:30*%
%TF.ProjectId,Design1,44657369-676e-4312-9e6b-696361645f70,rev?*%
%TF.SameCoordinates,Original*%
%TF.FileFunction,Soldermask,Bot*%
%TF.FilePolarity,Negative*%
%FSLAX46Y46*%
G04 Gerber Fmt 4.6, Leading zero omitted, Abs format (unit mm)*
G04 Created by KiCad (PCBNEW 9.0.3) date 2025-08-23 20:31:56*
%MOMM*%
%LPD*%
G01*
G04 APERTURE LIST*
G04 APERTURE END LIST*
G36*
X132326742Y-95706601D02*
G01*
X132480687Y-95770367D01*
X132619234Y-95862941D01*
X132737059Y-95980766D01*
X132829633Y-96119313D01*
X132893399Y-96273258D01*
X132925907Y-96436685D01*
X132925907Y-96603315D01*
X132893399Y-96766742D01*
X132829633Y-96920687D01*
X132737059Y-97059234D01*
X132619234Y-97177059D01*
X132480687Y-97269633D01*
X132326742Y-97333399D01*
X132163315Y-97365907D01*
X131996685Y-97365907D01*
X131833258Y-97333399D01*
X131679313Y-97269633D01*
X131540766Y-97177059D01*
X131422941Y-97059234D01*
X131330367Y-96920687D01*
X131266601Y-96766742D01*
X131234093Y-96603315D01*
X131234093Y-96436685D01*
X131266601Y-96273258D01*
X131330367Y-96119313D01*
X131422941Y-95980766D01*
X131540766Y-95862941D01*
X131679313Y-95770367D01*
X131833258Y-95706601D01*
X131996685Y-95674093D01*
X132163315Y-95674093D01*
X132326742Y-95706601D01*
G37*
G36*
X152646742Y-95706601D02*
G01*
X152800687Y-95770367D01*
X152939234Y-95862941D01*
X153057059Y-95980766D01*
X153149633Y-96119313D01*
X153213399Y-96273258D01*
X153245907Y-96436685D01*
X153245907Y-96603315D01*
X153213399Y-96766742D01*
X153149633Y-96920687D01*
X153057059Y-97059234D01*
X152939234Y-97177059D01*
X152800687Y-97269633D01*
X152646742Y-97333399D01*
X152483315Y-97365907D01*
X152316685Y-97365907D01*
X152153258Y-97333399D01*
X151999313Y-97269633D01*
X151860766Y-97177059D01*
X151742941Y-97059234D01*
X151650367Y-96920687D01*
X151586601Y-96766742D01*
X151554093Y-96603315D01*
X151554093Y-96436685D01*
X151586601Y-96273258D01*
X151650367Y-96119313D01*
X151742941Y-95980766D01*
X151860766Y-95862941D01*
X151999313Y-95770367D01*
X152153258Y-95706601D01*
X152316685Y-95674093D01*
X152483315Y-95674093D01*
X152646742Y-95706601D01*
G37*
G36*
X157726742Y-95706601D02*
G01*
X157880687Y-95770367D01*
X158019234Y-95862941D01*
X158137059Y-95980766D01*
X158229633Y-96119313D01*
X158293399Y-96273258D01*
X158325907Y-96436685D01*
X158325907Y-96603315D01*
X158293399Y-96766742D01*
X158229633Y-96920687D01*
X158137059Y-97059234D01*
X158019234Y-97177059D01*
X157880687Y-97269633D01*
X157726742Y-97333399D01*
X157563315Y-97365907D01*
X157396685Y-97365907D01*
X157233258Y-97333399D01*
X157079313Y-97269633D01*
X156940766Y-97177059D01*
X156822941Y-97059234D01*
X156730367Y-96920687D01*
X156666601Y-96766742D01*
X156634093Y-96603315D01*
X156634093Y-96436685D01*
X156666601Y-96273258D01*
X156730367Y-96119313D01*
X156822941Y-95980766D01*
X156940766Y-95862941D01*
X157079313Y-95770367D01*
X157233258Y-95706601D01*
X157396685Y-95674093D01*
X157563315Y-95674093D01*
X157726742Y-95706601D01*
G37*
G36*
X138602228Y-93604448D02*
G01*
X138747117Y-93664463D01*
X138877515Y-93751592D01*
X138988408Y-93862485D01*
X139075537Y-93992883D01*
X139135552Y-94137772D01*
X139166148Y-94291586D01*
X139166148Y-94448414D01*
X139135552Y-94602228D01*
X139075537Y-94747117D01*
X138988408Y-94877515D01*
X138877515Y-94988408D01*
X138747117Y-95075537D01*
X138602228Y-95135552D01*
X138448414Y-95166148D01*
X138291586Y-95166148D01*
X138137772Y-95135552D01*
X137992883Y-95075537D01*
X137862485Y-94988408D01*
X137751592Y-94877515D01*
X137664463Y-94747117D01*
X137604448Y-94602228D01*
X137573852Y-94448414D01*
X137573852Y-94291586D01*
X137604448Y-94137772D01*
X137664463Y-93992883D01*
X137751592Y-93862485D01*
X137862485Y-93751592D01*
X137992883Y-93664463D01*
X138137772Y-93604448D01*
X138291586Y-93573852D01*
X138448414Y-93573852D01*
X138602228Y-93604448D01*
G37*
G36*
X146222228Y-93604448D02*
G01*
X146367117Y-93664463D01*
X146497515Y-93751592D01*
X146608408Y-93862485D01*
X146695537Y-93992883D01*
X146755552Y-94137772D01*
X146786148Y-94291586D01*
X146786148Y-94448414D01*
X146755552Y-94602228D01*
X146695537Y-94747117D01*
X146608408Y-94877515D01*
X146497515Y-94988408D01*
X146367117Y-95075537D01*
X146222228Y-95135552D01*
X146068414Y-95166148D01*
X145911586Y-95166148D01*
X145757772Y-95135552D01*
X145612883Y-95075537D01*
X145482485Y-94988408D01*
X145371592Y-94877515D01*
X145284463Y-94747117D01*
X145224448Y-94602228D01*
X145193852Y-94448414D01*
X145193852Y-94291586D01*
X145224448Y-94137772D01*
X145284463Y-93992883D01*
X145371592Y-93862485D01*
X145482485Y-93751592D01*
X145612883Y-93664463D01*
X145757772Y-93604448D01*
X145911586Y-93573852D01*
X146068414Y-93573852D01*
X146222228Y-93604448D01*
G37*
G36*
X153250000Y-94830000D02*
G01*
X151550000Y-94830000D01*
X151550000Y-93130000D01*
X153250000Y-93130000D01*
X153250000Y-94830000D01*
G37*
G36*
X132326742Y-93166601D02*
G01*
X132480687Y-93230367D01*
X132619234Y-93322941D01*
X132737059Y-93440766D01*
X132829633Y-93579313D01*
X132893399Y-93733258D01*
X132925907Y-93896685D01*
X132925907Y-94063315D01*
X132893399Y-94226742D01*
X132829633Y-94380687D01*
X132737059Y-94519234D01*
X132619234Y-94637059D01*
X132480687Y-94729633D01*
X132326742Y-94793399D01*
X132163315Y-94825907D01*
X131996685Y-94825907D01*
X131833258Y-94793399D01*
X131679313Y-94729633D01*
X131540766Y-94637059D01*
X131422941Y-94519234D01*
X131330367Y-94380687D01*
X131266601Y-94226742D01*
X131234093Y-94063315D01*
X131234093Y-93896685D01*
X131266601Y-93733258D01*
X131330367Y-93579313D01*
X131422941Y-93440766D01*
X131540766Y-93322941D01*
X131679313Y-93230367D01*
X131833258Y-93166601D01*
X131996685Y-93134093D01*
X132163315Y-93134093D01*
X132326742Y-93166601D01*
G37*
G36*
X157726742Y-93166601D02*
G01*
X157880687Y-93230367D01*
X158019234Y-93322941D01*
X158137059Y-93440766D01*
X158229633Y-93579313D01*
X158293399Y-93733258D01*
X158325907Y-93896685D01*
X158325907Y-94063315D01*
X158293399Y-94226742D01*
X158229633Y-94380687D01*
X158137059Y-94519234D01*
X158019234Y-94637059D01*
X157880687Y-94729633D01*
X157726742Y-94793399D01*
X157563315Y-94825907D01*
X157396685Y-94825907D01*
X157233258Y-94793399D01*
X157079313Y-94729633D01*
X156940766Y-94637059D01*
X156822941Y-94519234D01*
X156730367Y-94380687D01*
X156666601Y-94226742D01*
X156634093Y-94063315D01*
X156634093Y-93896685D01*
X156666601Y-93733258D01*
X156730367Y-93579313D01*
X156822941Y-93440766D01*
X156940766Y-93322941D01*
X157079313Y-93230367D01*
X157233258Y-93166601D01*
X157396685Y-93134093D01*
X157563315Y-93134093D01*
X157726742Y-93166601D01*
G37*
G36*
X138602228Y-91064448D02*
G01*
X138747117Y-91124463D01*
X138877515Y-91211592D01*
X138988408Y-91322485D01*
X139075537Y-91452883D01*
X139135552Y-91597772D01*
X139166148Y-91751586D01*
X139166148Y-91908414D01*
X139135552Y-92062228D01*
X139075537Y-92207117D01*
X138988408Y-92337515D01*
X138877515Y-92448408D01*
X138747117Y-92535537D01*
X138602228Y-92595552D01*
X138448414Y-92626148D01*
X138291586Y-92626148D01*
X138137772Y-92595552D01*
X137992883Y-92535537D01*
X137862485Y-92448408D01*
X137751592Y-92337515D01*
X137664463Y-92207117D01*
X137604448Y-92062228D01*
X137573852Y-91908414D01*
X137573852Y-91751586D01*
X137604448Y-91597772D01*
X137664463Y-91452883D01*
X137751592Y-91322485D01*
X137862485Y-91211592D01*
X137992883Y-91124463D01*
X138137772Y-91064448D01*
X138291586Y-91033852D01*
X138448414Y-91033852D01*
X138602228Y-91064448D01*
G37*
G36*
X146222228Y-91064448D02*
G01*
X146367117Y-91124463D01*
X146497515Y-91211592D01*
X146608408Y-91322485D01*
X146695537Y-91452883D01*
X146755552Y-91597772D01*
X146786148Y-91751586D01*
X146786148Y-91908414D01*
X146755552Y-92062228D01*
X146695537Y-92207117D01*
X146608408Y-92337515D01*
X146497515Y-92448408D01*
X146367117Y-92535537D01*
X146222228Y-92595552D01*
X146068414Y-92626148D01*
X145911586Y-92626148D01*
X145757772Y-92595552D01*
X145612883Y-92535537D01*
X145482485Y-92448408D01*
X145371592Y-92337515D01*
X145284463Y-92207117D01*
X145224448Y-92062228D01*
X145193852Y-91908414D01*
X145193852Y-91751586D01*
X145224448Y-91597772D01*
X145284463Y-91452883D01*
X145371592Y-91322485D01*
X145482485Y-91211592D01*
X145612883Y-91124463D01*
X145757772Y-91064448D01*
X145911586Y-91033852D01*
X146068414Y-91033852D01*
X146222228Y-91064448D01*
G37*
G36*
X132326742Y-90626601D02*
G01*
X132480687Y-90690367D01*
X132619234Y-90782941D01*
X132737059Y-90900766D01*
X132829633Y-91039313D01*
X132893399Y-91193258D01*
X132925907Y-91356685D01*
X132925907Y-91523315D01*
X132893399Y-91686742D01*
X132829633Y-91840687D01*
X132737059Y-91979234D01*
X132619234Y-92097059D01*
X132480687Y-92189633D01*
X132326742Y-92253399D01*
X132163315Y-92285907D01*
X131996685Y-92285907D01*
X131833258Y-92253399D01*
X131679313Y-92189633D01*
X131540766Y-92097059D01*
X131422941Y-91979234D01*
X131330367Y-91840687D01*
X131266601Y-91686742D01*
X131234093Y-91523315D01*
X131234093Y-91356685D01*
X131266601Y-91193258D01*
X131330367Y-91039313D01*
X131422941Y-90900766D01*
X131540766Y-90782941D01*
X131679313Y-90690367D01*
X131833258Y-90626601D01*
X131996685Y-90594093D01*
X132163315Y-90594093D01*
X132326742Y-90626601D01*
G37*
G36*
X157726742Y-90626601D02*
G01*
X157880687Y-90690367D01*
X158019234Y-90782941D01*
X158137059Y-90900766D01*
X158229633Y-91039313D01*
X158293399Y-91193258D01*
X158325907Y-91356685D01*
X158325907Y-91523315D01*
X158293399Y-91686742D01*
X158229633Y-91840687D01*
X158137059Y-91979234D01*
X158019234Y-92097059D01*
X157880687Y-92189633D01*
X157726742Y-92253399D01*
X157563315Y-92285907D01*
X157396685Y-92285907D01*
X157233258Y-92253399D01*
X157079313Y-92189633D01*
X156940766Y-92097059D01*
X156822941Y-91979234D01*
X156730367Y-91840687D01*
X156666601Y-91686742D01*
X156634093Y-91523315D01*
X156634093Y-91356685D01*
X156666601Y-91193258D01*
X156730367Y-91039313D01*
X156822941Y-90900766D01*
X156940766Y-90782941D01*
X157079313Y-90690367D01*
X157233258Y-90626601D01*
X157396685Y-90594093D01*
X157563315Y-90594093D01*
X157726742Y-90626601D01*
G37*
G36*
X152646742Y-88576601D02*
G01*
X152800687Y-88640367D01*
X152939234Y-88732941D01*
X153057059Y-88850766D01*
X153149633Y-88989313D01*
X153213399Y-89143258D01*
X153245907Y-89306685D01*
X153245907Y-89473315D01*
X153213399Y-89636742D01*
X153149633Y-89790687D01*
X153057059Y-89929234D01*
X152939234Y-90047059D01*
X152800687Y-90139633D01*
X152646742Y-90203399D01*
X152483315Y-90235907D01*
X152316685Y-90235907D01*
X152153258Y-90203399D01*
X151999313Y-90139633D01*
X151860766Y-90047059D01*
X151742941Y-89929234D01*
X151650367Y-89790687D01*
X151586601Y-89636742D01*
X151554093Y-89473315D01*
X151554093Y-89306685D01*
X151586601Y-89143258D01*
X151650367Y-88989313D01*
X151742941Y-88850766D01*
X151860766Y-88732941D01*
X151999313Y-88640367D01*
X152153258Y-88576601D01*
X152316685Y-88544093D01*
X152483315Y-88544093D01*
X152646742Y-88576601D01*
G37*
G36*
X138602228Y-88524448D02*
G01*
X138747117Y-88584463D01*
X138877515Y-88671592D01*
X138988408Y-88782485D01*
X139075537Y-88912883D01*
X139135552Y-89057772D01*
X139166148Y-89211586D01*
X139166148Y-89368414D01*
X139135552Y-89522228D01*
X139075537Y-89667117D01*
X138988408Y-89797515D01*
X138877515Y-89908408D01*
X138747117Y-89995537D01*
X138602228Y-90055552D01*
X138448414Y-90086148D01*
X138291586Y-90086148D01*
X138137772Y-90055552D01*
X137992883Y-89995537D01*
X137862485Y-89908408D01*
X137751592Y-89797515D01*
X137664463Y-89667117D01*
X137604448Y-89522228D01*
X137573852Y-89368414D01*
X137573852Y-89211586D01*
X137604448Y-89057772D01*
X137664463Y-88912883D01*
X137751592Y-88782485D01*
X137862485Y-88671592D01*
X137992883Y-88584463D01*
X138137772Y-88524448D01*
X138291586Y-88493852D01*
X138448414Y-88493852D01*
X138602228Y-88524448D01*
G37*
G36*
X146222228Y-88524448D02*
G01*
X146367117Y-88584463D01*
X146497515Y-88671592D01*
X146608408Y-88782485D01*
X146695537Y-88912883D01*
X146755552Y-89057772D01*
X146786148Y-89211586D01*
X146786148Y-89368414D01*
X146755552Y-89522228D01*
X146695537Y-89667117D01*
X146608408Y-89797515D01*
X146497515Y-89908408D01*
X146367117Y-89995537D01*
X146222228Y-90055552D01*
X146068414Y-90086148D01*
X145911586Y-90086148D01*
X145757772Y-90055552D01*
X145612883Y-89995537D01*
X145482485Y-89908408D01*
X145371592Y-89797515D01*
X145284463Y-89667117D01*
X145224448Y-89522228D01*
X145193852Y-89368414D01*
X145193852Y-89211586D01*
X145224448Y-89057772D01*
X145284463Y-88912883D01*
X145371592Y-88782485D01*
X145482485Y-88671592D01*
X145612883Y-88584463D01*
X145757772Y-88524448D01*
X145911586Y-88493852D01*
X146068414Y-88493852D01*
X146222228Y-88524448D01*
G37*
G36*
X132326742Y-88086601D02*
G01*
X132480687Y-88150367D01*
X132619234Y-88242941D01*
X132737059Y-88360766D01*
X132829633Y-88499313D01*
X132893399Y-88653258D01*
X132925907Y-88816685D01*
X132925907Y-88983315D01*
X132893399Y-89146742D01*
X132829633Y-89300687D01*
X132737059Y-89439234D01*
X132619234Y-89557059D01*
X132480687Y-89649633D01*
X132326742Y-89713399D01*
X132163315Y-89745907D01*
X131996685Y-89745907D01*
X131833258Y-89713399D01*
X131679313Y-89649633D01*
X131540766Y-89557059D01*
X131422941Y-89439234D01*
X131330367Y-89300687D01*
X131266601Y-89146742D01*
X131234093Y-88983315D01*
X131234093Y-88816685D01*
X131266601Y-88653258D01*
X131330367Y-88499313D01*
X131422941Y-88360766D01*
X131540766Y-88242941D01*
X131679313Y-88150367D01*
X131833258Y-88086601D01*
X131996685Y-88054093D01*
X132163315Y-88054093D01*
X132326742Y-88086601D01*
G37*
G36*
X157726742Y-88086601D02*
G01*
X157880687Y-88150367D01*
X158019234Y-88242941D01*
X158137059Y-88360766D01*
X158229633Y-88499313D01*
X158293399Y-88653258D01*
X158325907Y-88816685D01*
X158325907Y-88983315D01*
X158293399Y-89146742D01*
X158229633Y-89300687D01*
X158137059Y-89439234D01*
X158019234Y-89557059D01*
X157880687Y-89649633D01*
X157726742Y-89713399D01*
X157563315Y-89745907D01*
X157396685Y-89745907D01*
X157233258Y-89713399D01*
X157079313Y-89649633D01*
X156940766Y-89557059D01*
X156822941Y-89439234D01*
X156730367Y-89300687D01*
X156666601Y-89146742D01*
X156634093Y-88983315D01*
X156634093Y-88816685D01*
X156666601Y-88653258D01*
X156730367Y-88499313D01*
X156822941Y-88360766D01*
X156940766Y-88242941D01*
X157079313Y-88150367D01*
X157233258Y-88086601D01*
X157396685Y-88054093D01*
X157563315Y-88054093D01*
X157726742Y-88086601D01*
G37*
G36*
X152646742Y-86036601D02*
G01*
X152800687Y-86100367D01*
X152939234Y-86192941D01*
X153057059Y-86310766D01*
X153149633Y-86449313D01*
X153213399Y-86603258D01*
X153245907Y-86766685D01*
X153245907Y-86933315D01*
X153213399Y-87096742D01*
X153149633Y-87250687D01*
X153057059Y-87389234D01*
X152939234Y-87507059D01*
X152800687Y-87599633D01*
X152646742Y-87663399D01*
X152483315Y-87695907D01*
X152316685Y-87695907D01*
X152153258Y-87663399D01*
X151999313Y-87599633D01*
X151860766Y-87507059D01*
X151742941Y-87389234D01*
X151650367Y-87250687D01*
X151586601Y-87096742D01*
X151554093Y-86933315D01*
X151554093Y-86766685D01*
X151586601Y-86603258D01*
X151650367Y-86449313D01*
X151742941Y-86310766D01*
X151860766Y-86192941D01*
X151999313Y-86100367D01*
X152153258Y-86036601D01*
X152316685Y-86004093D01*
X152483315Y-86004093D01*
X152646742Y-86036601D01*
G37*
G36*
X138602228Y-85984448D02*
G01*
X138747117Y-86044463D01*
X138877515Y-86131592D01*
X138988408Y-86242485D01*
X139075537Y-86372883D01*
X139135552Y-86517772D01*
X139166148Y-86671586D01*
X139166148Y-86828414D01*
X139135552Y-86982228D01*
X139075537Y-87127117D01*
X138988408Y-87257515D01*
X138877515Y-87368408D01*
X138747117Y-87455537D01*
X138602228Y-87515552D01*
X138448414Y-87546148D01*
X138291586Y-87546148D01*
X138137772Y-87515552D01*
X137992883Y-87455537D01*
X137862485Y-87368408D01*
X137751592Y-87257515D01*
X137664463Y-87127117D01*
X137604448Y-86982228D01*
X137573852Y-86828414D01*
X137573852Y-86671586D01*
X137604448Y-86517772D01*
X137664463Y-86372883D01*
X137751592Y-86242485D01*
X137862485Y-86131592D01*
X137992883Y-86044463D01*
X138137772Y-85984448D01*
X138291586Y-85953852D01*
X138448414Y-85953852D01*
X138602228Y-85984448D01*
G37*
G36*
X146222228Y-85984448D02*
G01*
X146367117Y-86044463D01*
X146497515Y-86131592D01*
X146608408Y-86242485D01*
X146695537Y-86372883D01*
X146755552Y-86517772D01*
X146786148Y-86671586D01*
X146786148Y-86828414D01*
X146755552Y-86982228D01*
X146695537Y-87127117D01*
X146608408Y-87257515D01*
X146497515Y-87368408D01*
X146367117Y-87455537D01*
X146222228Y-87515552D01*
X146068414Y-87546148D01*
X145911586Y-87546148D01*
X145757772Y-87515552D01*
X145612883Y-87455537D01*
X145482485Y-87368408D01*
X145371592Y-87257515D01*
X145284463Y-87127117D01*
X145224448Y-86982228D01*
X145193852Y-86828414D01*
X145193852Y-86671586D01*
X145224448Y-86517772D01*
X145284463Y-86372883D01*
X145371592Y-86242485D01*
X145482485Y-86131592D01*
X145612883Y-86044463D01*
X145757772Y-85984448D01*
X145911586Y-85953852D01*
X146068414Y-85953852D01*
X146222228Y-85984448D01*
G37*
G36*
X132326742Y-85546601D02*
G01*
X132480687Y-85610367D01*
X132619234Y-85702941D01*
X132737059Y-85820766D01*
X132829633Y-85959313D01*
X132893399Y-86113258D01*
X132925907Y-86276685D01*
X132925907Y-86443315D01*
X132893399Y-86606742D01*
X132829633Y-86760687D01*
X132737059Y-86899234D01*
X132619234Y-87017059D01*
X132480687Y-87109633D01*
X132326742Y-87173399D01*
X132163315Y-87205907D01*
X131996685Y-87205907D01*
X131833258Y-87173399D01*
X131679313Y-87109633D01*
X131540766Y-87017059D01*
X131422941Y-86899234D01*
X131330367Y-86760687D01*
X131266601Y-86606742D01*
X131234093Y-86443315D01*
X131234093Y-86276685D01*
X131266601Y-86113258D01*
X131330367Y-85959313D01*
X131422941Y-85820766D01*
X131540766Y-85702941D01*
X131679313Y-85610367D01*
X131833258Y-85546601D01*
X131996685Y-85514093D01*
X132163315Y-85514093D01*
X132326742Y-85546601D01*
G37*
G36*
X157726742Y-85546601D02*
G01*
X157880687Y-85610367D01*
X158019234Y-85702941D01*
X158137059Y-85820766D01*
X158229633Y-85959313D01*
X158293399Y-86113258D01*
X158325907Y-86276685D01*
X158325907Y-86443315D01*
X158293399Y-86606742D01*
X158229633Y-86760687D01*
X158137059Y-86899234D01*
X158019234Y-87017059D01*
X157880687Y-87109633D01*
X157726742Y-87173399D01*
X157563315Y-87205907D01*
X157396685Y-87205907D01*
X157233258Y-87173399D01*
X157079313Y-87109633D01*
X156940766Y-87017059D01*
X156822941Y-86899234D01*
X156730367Y-86760687D01*
X156666601Y-86606742D01*
X156634093Y-86443315D01*
X156634093Y-86276685D01*
X156666601Y-86113258D01*
X156730367Y-85959313D01*
X156822941Y-85820766D01*
X156940766Y-85702941D01*
X157079313Y-85610367D01*
X157233258Y-85546601D01*
X157396685Y-85514093D01*
X157563315Y-85514093D01*
X157726742Y-85546601D01*
G37*
G36*
X153250000Y-85160000D02*
G01*
X151550000Y-85160000D01*
X151550000Y-83460000D01*
X153250000Y-83460000D01*
X153250000Y-85160000D01*
G37*
G36*
X138602228Y-83444448D02*
G01*
X138747117Y-83504463D01*
X138877515Y-83591592D01*
X138988408Y-83702485D01*
X139075537Y-83832883D01*
X139135552Y-83977772D01*
X139166148Y-84131586D01*
X139166148Y-84288414D01*
X139135552Y-84442228D01*
X139075537Y-84587117D01*
X138988408Y-84717515D01*
X138877515Y-84828408D01*
X138747117Y-84915537D01*
X138602228Y-84975552D01*
X138448414Y-85006148D01*
X138291586Y-85006148D01*
X138137772Y-84975552D01*
X137992883Y-84915537D01*
X137862485Y-84828408D01*
X137751592Y-84717515D01*
X137664463Y-84587117D01*
X137604448Y-84442228D01*
X137573852Y-84288414D01*
X137573852Y-84131586D01*
X137604448Y-83977772D01*
X137664463Y-83832883D01*
X137751592Y-83702485D01*
X137862485Y-83591592D01*
X137992883Y-83504463D01*
X138137772Y-83444448D01*
X138291586Y-83413852D01*
X138448414Y-83413852D01*
X138602228Y-83444448D01*
G37*
G36*
X146222228Y-83444448D02*
G01*
X146367117Y-83504463D01*
X146497515Y-83591592D01*
X146608408Y-83702485D01*
X146695537Y-83832883D01*
X146755552Y-83977772D01*
X146786148Y-84131586D01*
X146786148Y-84288414D01*
X146755552Y-84442228D01*
X146695537Y-84587117D01*
X146608408Y-84717515D01*
X146497515Y-84828408D01*
X146367117Y-84915537D01*
X146222228Y-84975552D01*
X146068414Y-85006148D01*
X145911586Y-85006148D01*
X145757772Y-84975552D01*
X145612883Y-84915537D01*
X145482485Y-84828408D01*
X145371592Y-84717515D01*
X145284463Y-84587117D01*
X145224448Y-84442228D01*
X145193852Y-84288414D01*
X145193852Y-84131586D01*
X145224448Y-83977772D01*
X145284463Y-83832883D01*
X145371592Y-83702485D01*
X145482485Y-83591592D01*
X145612883Y-83504463D01*
X145757772Y-83444448D01*
X145911586Y-83413852D01*
X146068414Y-83413852D01*
X146222228Y-83444448D01*
G37*
G36*
X132326742Y-83006601D02*
G01*
X132480687Y-83070367D01*
X132619234Y-83162941D01*
X132737059Y-83280766D01*
X132829633Y-83419313D01*
X132893399Y-83573258D01*
X132925907Y-83736685D01*
X132925907Y-83903315D01*
X132893399Y-84066742D01*
X132829633Y-84220687D01*
X132737059Y-84359234D01*
X132619234Y-84477059D01*
X132480687Y-84569633D01*
X132326742Y-84633399D01*
X132163315Y-84665907D01*
X131996685Y-84665907D01*
X131833258Y-84633399D01*
X131679313Y-84569633D01*
X131540766Y-84477059D01*
X131422941Y-84359234D01*
X131330367Y-84220687D01*
X131266601Y-84066742D01*
X131234093Y-83903315D01*
X131234093Y-83736685D01*
X131266601Y-83573258D01*
X131330367Y-83419313D01*
X131422941Y-83280766D01*
X131540766Y-83162941D01*
X131679313Y-83070367D01*
X131833258Y-83006601D01*
X131996685Y-82974093D01*
X132163315Y-82974093D01*
X132326742Y-83006601D01*
G37*
G36*
X157726742Y-83006601D02*
G01*
X157880687Y-83070367D01*
X158019234Y-83162941D01*
X158137059Y-83280766D01*
X158229633Y-83419313D01*
X158293399Y-83573258D01*
X158325907Y-83736685D01*
X158325907Y-83903315D01*
X158293399Y-84066742D01*
X158229633Y-84220687D01*
X158137059Y-84359234D01*
X158019234Y-84477059D01*
X157880687Y-84569633D01*
X157726742Y-84633399D01*
X157563315Y-84665907D01*
X157396685Y-84665907D01*
X157233258Y-84633399D01*
X157079313Y-84569633D01*
X156940766Y-84477059D01*
X156822941Y-84359234D01*
X156730367Y-84220687D01*
X156666601Y-84066742D01*
X156634093Y-83903315D01*
X156634093Y-83736685D01*
X156666601Y-83573258D01*
X156730367Y-83419313D01*
X156822941Y-83280766D01*
X156940766Y-83162941D01*
X157079313Y-83070367D01*
X157233258Y-83006601D01*
X157396685Y-82974093D01*
X157563315Y-82974093D01*
X157726742Y-83006601D01*
G37*
G36*
X138602228Y-80904448D02*
G01*
X138747117Y-80964463D01*
X138877515Y-81051592D01*
X138988408Y-81162485D01*
X139075537Y-81292883D01*
X139135552Y-81437772D01*
X139166148Y-81591586D01*
X139166148Y-81748414D01*
X139135552Y-81902228D01*
X139075537Y-82047117D01*
X138988408Y-82177515D01*
X138877515Y-82288408D01*
X138747117Y-82375537D01*
X138602228Y-82435552D01*
X138448414Y-82466148D01*
X138291586Y-82466148D01*
X138137772Y-82435552D01*
X137992883Y-82375537D01*
X137862485Y-82288408D01*
X137751592Y-82177515D01*
X137664463Y-82047117D01*
X137604448Y-81902228D01*
X137573852Y-81748414D01*
X137573852Y-81591586D01*
X137604448Y-81437772D01*
X137664463Y-81292883D01*
X137751592Y-81162485D01*
X137862485Y-81051592D01*
X137992883Y-80964463D01*
X138137772Y-80904448D01*
X138291586Y-80873852D01*
X138448414Y-80873852D01*
X138602228Y-80904448D01*
G37*
G36*
X146222228Y-80904448D02*
G01*
X146367117Y-80964463D01*
X146497515Y-81051592D01*
X146608408Y-81162485D01*
X146695537Y-81292883D01*
X146755552Y-81437772D01*
X146786148Y-81591586D01*
X146786148Y-81748414D01*
X146755552Y-81902228D01*
X146695537Y-82047117D01*
X146608408Y-82177515D01*
X146497515Y-82288408D01*
X146367117Y-82375537D01*
X146222228Y-82435552D01*
X146068414Y-82466148D01*
X145911586Y-82466148D01*
X145757772Y-82435552D01*
X145612883Y-82375537D01*
X145482485Y-82288408D01*
X145371592Y-82177515D01*
X145284463Y-82047117D01*
X145224448Y-81902228D01*
X145193852Y-81748414D01*
X145193852Y-81591586D01*
X145224448Y-81437772D01*
X145284463Y-81292883D01*
X145371592Y-81162485D01*
X145482485Y-81051592D01*
X145612883Y-80964463D01*
X145757772Y-80904448D01*
X145911586Y-80873852D01*
X146068414Y-80873852D01*
X146222228Y-80904448D01*
G37*
G36*
X132326742Y-80466601D02*
G01*
X132480687Y-80530367D01*
X132619234Y-80622941D01*
X132737059Y-80740766D01*
X132829633Y-80879313D01*
X132893399Y-81033258D01*
X132925907Y-81196685D01*
X132925907Y-81363315D01*
X132893399Y-81526742D01*
X132829633Y-81680687D01*
X132737059Y-81819234D01*
X132619234Y-81937059D01*
X132480687Y-82029633D01*
X132326742Y-82093399D01*
X132163315Y-82125907D01*
X131996685Y-82125907D01*
X131833258Y-82093399D01*
X131679313Y-82029633D01*
X131540766Y-81937059D01*
X131422941Y-81819234D01*
X131330367Y-81680687D01*
X131266601Y-81526742D01*
X131234093Y-81363315D01*
X131234093Y-81196685D01*
X131266601Y-81033258D01*
X131330367Y-80879313D01*
X131422941Y-80740766D01*
X131540766Y-80622941D01*
X131679313Y-80530367D01*
X131833258Y-80466601D01*
X131996685Y-80434093D01*
X132163315Y-80434093D01*
X132326742Y-80466601D01*
G37*
G36*
X157726742Y-80466601D02*
G01*
X157880687Y-80530367D01*
X158019234Y-80622941D01*
X158137059Y-80740766D01*
X158229633Y-80879313D01*
X158293399Y-81033258D01*
X158325907Y-81196685D01*
X158325907Y-81363315D01*
X158293399Y-81526742D01*
X158229633Y-81680687D01*
X158137059Y-81819234D01*
X158019234Y-81937059D01*
X157880687Y-82029633D01*
X157726742Y-82093399D01*
X157563315Y-82125907D01*
X157396685Y-82125907D01*
X157233258Y-82093399D01*
X157079313Y-82029633D01*
X156940766Y-81937059D01*
X156822941Y-81819234D01*
X156730367Y-81680687D01*
X156666601Y-81526742D01*
X156634093Y-81363315D01*
X156634093Y-81196685D01*
X156666601Y-81033258D01*
X156730367Y-80879313D01*
X156822941Y-80740766D01*
X156940766Y-80622941D01*
X157079313Y-80530367D01*
X157233258Y-80466601D01*
X157396685Y-80434093D01*
X157563315Y-80434093D01*
X157726742Y-80466601D01*
G37*
G36*
X138602228Y-78364448D02*
G01*
X138747117Y-78424463D01*
X138877515Y-78511592D01*
X138988408Y-78622485D01*
X139075537Y-78752883D01*
X139135552Y-78897772D01*
X139166148Y-79051586D01*
X139166148Y-79208414D01*
X139135552Y-79362228D01*
X139075537Y-79507117D01*
X138988408Y-79637515D01*
X138877515Y-79748408D01*
X138747117Y-79835537D01*
X138602228Y-79895552D01*
X138448414Y-79926148D01*
X138291586Y-79926148D01*
X138137772Y-79895552D01*
X137992883Y-79835537D01*
X137862485Y-79748408D01*
X137751592Y-79637515D01*
X137664463Y-79507117D01*
X137604448Y-79362228D01*
X137573852Y-79208414D01*
X137573852Y-79051586D01*
X137604448Y-78897772D01*
X137664463Y-78752883D01*
X137751592Y-78622485D01*
X137862485Y-78511592D01*
X137992883Y-78424463D01*
X138137772Y-78364448D01*
X138291586Y-78333852D01*
X138448414Y-78333852D01*
X138602228Y-78364448D01*
G37*
G36*
X146222228Y-78364448D02*
G01*
X146367117Y-78424463D01*
X146497515Y-78511592D01*
X146608408Y-78622485D01*
X146695537Y-78752883D01*
X146755552Y-78897772D01*
X146786148Y-79051586D01*
X146786148Y-79208414D01*
X146755552Y-79362228D01*
X146695537Y-79507117D01*
X146608408Y-79637515D01*
X146497515Y-79748408D01*
X146367117Y-79835537D01*
X146222228Y-79895552D01*
X146068414Y-79926148D01*
X145911586Y-79926148D01*
X145757772Y-79895552D01*
X145612883Y-79835537D01*
X145482485Y-79748408D01*
X145371592Y-79637515D01*
X145284463Y-79507117D01*
X145224448Y-79362228D01*
X145193852Y-79208414D01*
X145193852Y-79051586D01*
X145224448Y-78897772D01*
X145284463Y-78752883D01*
X145371592Y-78622485D01*
X145482485Y-78511592D01*
X145612883Y-78424463D01*
X145757772Y-78364448D01*
X145911586Y-78333852D01*
X146068414Y-78333852D01*
X146222228Y-78364448D01*
G37*
G36*
X132326742Y-77926601D02*
G01*
X132480687Y-77990367D01*
X132619234Y-78082941D01*
X132737059Y-78200766D01*
X132829633Y-78339313D01*
X132893399Y-78493258D01*
X132925907Y-78656685D01*
X132925907Y-78823315D01*
X132893399Y-78986742D01*
X132829633Y-79140687D01*
X132737059Y-79279234D01*
X132619234Y-79397059D01*
X132480687Y-79489633D01*
X132326742Y-79553399D01*
X132163315Y-79585907D01*
X131996685Y-79585907D01*
X131833258Y-79553399D01*
X131679313Y-79489633D01*
X131540766Y-79397059D01*
X131422941Y-79279234D01*
X131330367Y-79140687D01*
X131266601Y-78986742D01*
X131234093Y-78823315D01*
X131234093Y-78656685D01*
X131266601Y-78493258D01*
X131330367Y-78339313D01*
X131422941Y-78200766D01*
X131540766Y-78082941D01*
X131679313Y-77990367D01*
X131833258Y-77926601D01*
X131996685Y-77894093D01*
X132163315Y-77894093D01*
X132326742Y-77926601D01*
G37*
G36*
X157726742Y-77926601D02*
G01*
X157880687Y-77990367D01*
X158019234Y-78082941D01*
X158137059Y-78200766D01*
X158229633Y-78339313D01*
X158293399Y-78493258D01*
X158325907Y-78656685D01*
X158325907Y-78823315D01*
X158293399Y-78986742D01*
X158229633Y-79140687D01*
X158137059Y-79279234D01*
X158019234Y-79397059D01*
X157880687Y-79489633D01*
X157726742Y-79553399D01*
X157563315Y-79585907D01*
X157396685Y-79585907D01*
X157233258Y-79553399D01*
X157079313Y-79489633D01*
X156940766Y-79397059D01*
X156822941Y-79279234D01*
X156730367Y-79140687D01*
X156666601Y-78986742D01*
X156634093Y-78823315D01*
X156634093Y-78656685D01*
X156666601Y-78493258D01*
X156730367Y-78339313D01*
X156822941Y-78200766D01*
X156940766Y-78082941D01*
X157079313Y-77990367D01*
X157233258Y-77926601D01*
X157396685Y-77894093D01*
X157563315Y-77894093D01*
X157726742Y-77926601D01*
G37*
G36*
X150930000Y-79180000D02*
G01*
X149130000Y-79180000D01*
X149130000Y-77380000D01*
X150930000Y-77380000D01*
X150930000Y-79180000D01*
G37*
G36*
X152831256Y-77418754D02*
G01*
X152994257Y-77486271D01*
X153140954Y-77584291D01*
X153265709Y-77709046D01*
X153363729Y-77855743D01*
X153431246Y-78018744D01*
X153465666Y-78191785D01*
X153465666Y-78368215D01*
X153431246Y-78541256D01*
X153363729Y-78704257D01*
X153265709Y-78850954D01*
X153140954Y-78975709D01*
X152994257Y-79073729D01*
X152831256Y-79141246D01*
X152658215Y-79175666D01*
X152481785Y-79175666D01*
X152308744Y-79141246D01*
X152145743Y-79073729D01*
X151999046Y-78975709D01*
X151874291Y-78850954D01*
X151776271Y-78704257D01*
X151708754Y-78541256D01*
X151674334Y-78368215D01*
X151674334Y-78191785D01*
X151708754Y-78018744D01*
X151776271Y-77855743D01*
X151874291Y-77709046D01*
X151999046Y-77584291D01*
X152145743Y-77486271D01*
X152308744Y-77418754D01*
X152481785Y-77384334D01*
X152658215Y-77384334D01*
X152831256Y-77418754D01*
G37*
G36*
X138924047Y-75790805D02*
G01*
X138975408Y-75796764D01*
X138992954Y-75804511D01*
X139015671Y-75809030D01*
X139039991Y-75825280D01*
X139060793Y-75834465D01*
X139075000Y-75848672D01*
X139096777Y-75863223D01*
X139111327Y-75884999D01*
X139125534Y-75899206D01*
X139134718Y-75920006D01*
X139150970Y-75944329D01*
X139155489Y-75967048D01*
X139163235Y-75984591D01*
X139169192Y-76035940D01*
X139170000Y-76040000D01*
X139170000Y-77140000D01*
X139169192Y-77144059D01*
X139163235Y-77195408D01*
X139155489Y-77212950D01*
X139150970Y-77235671D01*
X139134716Y-77259995D01*
X139125534Y-77280793D01*
X139111329Y-77294997D01*
X139096777Y-77316777D01*
X139074997Y-77331329D01*
X139060793Y-77345534D01*
X139039995Y-77354716D01*
X139015671Y-77370970D01*
X138992950Y-77375489D01*
X138975408Y-77383235D01*
X138924061Y-77389192D01*
X138920000Y-77390000D01*
X137820000Y-77390000D01*
X137815941Y-77389192D01*
X137764591Y-77383235D01*
X137747048Y-77375489D01*
X137724329Y-77370970D01*
X137700006Y-77354718D01*
X137679206Y-77345534D01*
X137664999Y-77331327D01*
X137643223Y-77316777D01*
X137628672Y-77295000D01*
X137614465Y-77280793D01*
X137605280Y-77259991D01*
X137589030Y-77235671D01*
X137584511Y-77212954D01*
X137576764Y-77195408D01*
X137570805Y-77144049D01*
X137570000Y-77140000D01*
X137570000Y-76040000D01*
X137570804Y-76035953D01*
X137576764Y-75984591D01*
X137584511Y-75967043D01*
X137589030Y-75944329D01*
X137605278Y-75920010D01*
X137614465Y-75899206D01*
X137628674Y-75884996D01*
X137643223Y-75863223D01*
X137664996Y-75848674D01*
X137679206Y-75834465D01*
X137700010Y-75825278D01*
X137724329Y-75809030D01*
X137747043Y-75804511D01*
X137764591Y-75796764D01*
X137815952Y-75790805D01*
X137820000Y-75790000D01*
X138920000Y-75790000D01*
X138924047Y-75790805D01*
G37*
G36*
X146222228Y-75824448D02*
G01*
X146367117Y-75884463D01*
X146497515Y-75971592D01*
X146608408Y-76082485D01*
X146695537Y-76212883D01*
X146755552Y-76357772D01*
X146786148Y-76511586D01*
X146786148Y-76668414D01*
X146755552Y-76822228D01*
X146695537Y-76967117D01*
X146608408Y-77097515D01*
X146497515Y-77208408D01*
X146367117Y-77295537D01*
X146222228Y-77355552D01*
X146068414Y-77386148D01*
X145911586Y-77386148D01*
X145757772Y-77355552D01*
X145612883Y-77295537D01*
X145482485Y-77208408D01*
X145371592Y-77097515D01*
X145284463Y-76967117D01*
X145224448Y-76822228D01*
X145193852Y-76668414D01*
X145193852Y-76511586D01*
X145224448Y-76357772D01*
X145284463Y-76212883D01*
X145371592Y-76082485D01*
X145482485Y-75971592D01*
X145612883Y-75884463D01*
X145757772Y-75824448D01*
X145911586Y-75793852D01*
X146068414Y-75793852D01*
X146222228Y-75824448D01*
G37*
G36*
X132326742Y-75386601D02*
G01*
X132480687Y-75450367D01*
X132619234Y-75542941D01*
X132737059Y-75660766D01*
X132829633Y-75799313D01*
X132893399Y-75953258D01*
X132925907Y-76116685D01*
X132925907Y-76283315D01*
X132893399Y-76446742D01*
X132829633Y-76600687D01*
X132737059Y-76739234D01*
X132619234Y-76857059D01*
X132480687Y-76949633D01*
X132326742Y-77013399D01*
X132163315Y-77045907D01*
X131996685Y-77045907D01*
X131833258Y-77013399D01*
X131679313Y-76949633D01*
X131540766Y-76857059D01*
X131422941Y-76739234D01*
X131330367Y-76600687D01*
X131266601Y-76446742D01*
X131234093Y-76283315D01*
X131234093Y-76116685D01*
X131266601Y-75953258D01*
X131330367Y-75799313D01*
X131422941Y-75660766D01*
X131540766Y-75542941D01*
X131679313Y-75450367D01*
X131833258Y-75386601D01*
X131996685Y-75354093D01*
X132163315Y-75354093D01*
X132326742Y-75386601D01*
G37*
G36*
X157726742Y-75386601D02*
G01*
X157880687Y-75450367D01*
X158019234Y-75542941D01*
X158137059Y-75660766D01*
X158229633Y-75799313D01*
X158293399Y-75953258D01*
X158325907Y-76116685D01*
X158325907Y-76283315D01*
X158293399Y-76446742D01*
X158229633Y-76600687D01*
X158137059Y-76739234D01*
X158019234Y-76857059D01*
X157880687Y-76949633D01*
X157726742Y-77013399D01*
X157563315Y-77045907D01*
X157396685Y-77045907D01*
X157233258Y-77013399D01*
X157079313Y-76949633D01*
X156940766Y-76857059D01*
X156822941Y-76739234D01*
X156730367Y-76600687D01*
X156666601Y-76446742D01*
X156634093Y-76283315D01*
X156634093Y-76116685D01*
X156666601Y-75953258D01*
X156730367Y-75799313D01*
X156822941Y-75660766D01*
X156940766Y-75542941D01*
X157079313Y-75450367D01*
X157233258Y-75386601D01*
X157396685Y-75354093D01*
X157563315Y-75354093D01*
X157726742Y-75386601D01*
G37*
G36*
X132326742Y-72846601D02*
G01*
X132480687Y-72910367D01*
X132619234Y-73002941D01*
X132737059Y-73120766D01*
X132829633Y-73259313D01*
X132893399Y-73413258D01*
X132925907Y-73576685D01*
X132925907Y-73743315D01*
X132893399Y-73906742D01*
X132829633Y-74060687D01*
X132737059Y-74199234D01*
X132619234Y-74317059D01*
X132480687Y-74409633D01*
X132326742Y-74473399D01*
X132163315Y-74505907D01*
X131996685Y-74505907D01*
X131833258Y-74473399D01*
X131679313Y-74409633D01*
X131540766Y-74317059D01*
X131422941Y-74199234D01*
X131330367Y-74060687D01*
X131266601Y-73906742D01*
X131234093Y-73743315D01*
X131234093Y-73576685D01*
X131266601Y-73413258D01*
X131330367Y-73259313D01*
X131422941Y-73120766D01*
X131540766Y-73002941D01*
X131679313Y-72910367D01*
X131833258Y-72846601D01*
X131996685Y-72814093D01*
X132163315Y-72814093D01*
X132326742Y-72846601D01*
G37*
G36*
X157726742Y-72846601D02*
G01*
X157880687Y-72910367D01*
X158019234Y-73002941D01*
X158137059Y-73120766D01*
X158229633Y-73259313D01*
X158293399Y-73413258D01*
X158325907Y-73576685D01*
X158325907Y-73743315D01*
X158293399Y-73906742D01*
X158229633Y-74060687D01*
X158137059Y-74199234D01*
X158019234Y-74317059D01*
X157880687Y-74409633D01*
X157726742Y-74473399D01*
X157563315Y-74505907D01*
X157396685Y-74505907D01*
X157233258Y-74473399D01*
X157079313Y-74409633D01*
X156940766Y-74317059D01*
X156822941Y-74199234D01*
X156730367Y-74060687D01*
X156666601Y-73906742D01*
X156634093Y-73743315D01*
X156634093Y-73576685D01*
X156666601Y-73413258D01*
X156730367Y-73259313D01*
X156822941Y-73120766D01*
X156940766Y-73002941D01*
X157079313Y-72910367D01*
X157233258Y-72846601D01*
X157396685Y-72814093D01*
X157563315Y-72814093D01*
X157726742Y-72846601D01*
G37*
G36*
X132326742Y-70306601D02*
G01*
X132480687Y-70370367D01*
X132619234Y-70462941D01*
X132737059Y-70580766D01*
X132829633Y-70719313D01*
X132893399Y-70873258D01*
X132925907Y-71036685D01*
X132925907Y-71203315D01*
X132893399Y-71366742D01*
X132829633Y-71520687D01*
X132737059Y-71659234D01*
X132619234Y-71777059D01*
X132480687Y-71869633D01*
X132326742Y-71933399D01*
X132163315Y-71965907D01*
X131996685Y-71965907D01*
X131833258Y-71933399D01*
X131679313Y-71869633D01*
X131540766Y-71777059D01*
X131422941Y-71659234D01*
X131330367Y-71520687D01*
X131266601Y-71366742D01*
X131234093Y-71203315D01*
X131234093Y-71036685D01*
X131266601Y-70873258D01*
X131330367Y-70719313D01*
X131422941Y-70580766D01*
X131540766Y-70462941D01*
X131679313Y-70370367D01*
X131833258Y-70306601D01*
X131996685Y-70274093D01*
X132163315Y-70274093D01*
X132326742Y-70306601D01*
G37*
G36*
X157726742Y-70306601D02*
G01*
X157880687Y-70370367D01*
X158019234Y-70462941D01*
X158137059Y-70580766D01*
X158229633Y-70719313D01*
X158293399Y-70873258D01*
X158325907Y-71036685D01*
X158325907Y-71203315D01*
X158293399Y-71366742D01*
X158229633Y-71520687D01*
X158137059Y-71659234D01*
X158019234Y-71777059D01*
X157880687Y-71869633D01*
X157726742Y-71933399D01*
X157563315Y-71965907D01*
X157396685Y-71965907D01*
X157233258Y-71933399D01*
X157079313Y-71869633D01*
X156940766Y-71777059D01*
X156822941Y-71659234D01*
X156730367Y-71520687D01*
X156666601Y-71366742D01*
X156634093Y-71203315D01*
X156634093Y-71036685D01*
X156666601Y-70873258D01*
X156730367Y-70719313D01*
X156822941Y-70580766D01*
X156940766Y-70462941D01*
X157079313Y-70370367D01*
X157233258Y-70306601D01*
X157396685Y-70274093D01*
X157563315Y-70274093D01*
X157726742Y-70306601D01*
G37*
G36*
X138103116Y-67554575D02*
G01*
X138285770Y-67590907D01*
X138457827Y-67662175D01*
X138612674Y-67765640D01*
X138744360Y-67897326D01*
X138847825Y-68052173D01*
X138919093Y-68224230D01*
X138955425Y-68406884D01*
X138955425Y-68593116D01*
X138919093Y-68775770D01*
X138847825Y-68947827D01*
X138744360Y-69102674D01*
X138612674Y-69234360D01*
X138457827Y-69337825D01*
X138285770Y-69409093D01*
X138103116Y-69445425D01*
X138010000Y-69450000D01*
X138008768Y-69450000D01*
X136711232Y-69450000D01*
X136710000Y-69450000D01*
X136616884Y-69445425D01*
X136434230Y-69409093D01*
X136262173Y-69337825D01*
X136107326Y-69234360D01*
X135975640Y-69102674D01*
X135872175Y-68947827D01*
X135800907Y-68775770D01*
X135764575Y-68593116D01*
X135764575Y-68406884D01*
X135800907Y-68224230D01*
X135872175Y-68052173D01*
X135975640Y-67897326D01*
X136107326Y-67765640D01*
X136262173Y-67662175D01*
X136434230Y-67590907D01*
X136616884Y-67554575D01*
X136710000Y-67550000D01*
X138010000Y-67550000D01*
X138103116Y-67554575D01*
G37*
G36*
X150603116Y-67554575D02*
G01*
X150785770Y-67590907D01*
X150957827Y-67662175D01*
X151112674Y-67765640D01*
X151244360Y-67897326D01*
X151347825Y-68052173D01*
X151419093Y-68224230D01*
X151455425Y-68406884D01*
X151455425Y-68593116D01*
X151419093Y-68775770D01*
X151347825Y-68947827D01*
X151244360Y-69102674D01*
X151112674Y-69234360D01*
X150957827Y-69337825D01*
X150785770Y-69409093D01*
X150603116Y-69445425D01*
X150510000Y-69450000D01*
X150508768Y-69450000D01*
X149211232Y-69450000D01*
X149210000Y-69450000D01*
X149116884Y-69445425D01*
X148934230Y-69409093D01*
X148762173Y-69337825D01*
X148607326Y-69234360D01*
X148475640Y-69102674D01*
X148372175Y-68947827D01*
X148300907Y-68775770D01*
X148264575Y-68593116D01*
X148264575Y-68406884D01*
X148300907Y-68224230D01*
X148372175Y-68052173D01*
X148475640Y-67897326D01*
X148607326Y-67765640D01*
X148762173Y-67662175D01*
X148934230Y-67590907D01*
X149116884Y-67554575D01*
X149210000Y-67550000D01*
X150510000Y-67550000D01*
X150603116Y-67554575D01*
G37*
G36*
X132326742Y-67766601D02*
G01*
X132480687Y-67830367D01*
X132619234Y-67922941D01*
X132737059Y-68040766D01*
X132829633Y-68179313D01*
X132893399Y-68333258D01*
X132925907Y-68496685D01*
X132925907Y-68663315D01*
X132893399Y-68826742D01*
X132829633Y-68980687D01*
X132737059Y-69119234D01*
X132619234Y-69237059D01*
X132480687Y-69329633D01*
X132326742Y-69393399D01*
X132163315Y-69425907D01*
X131996685Y-69425907D01*
X131833258Y-69393399D01*
X131679313Y-69329633D01*
X131540766Y-69237059D01*
X131422941Y-69119234D01*
X131330367Y-68980687D01*
X131266601Y-68826742D01*
X131234093Y-68663315D01*
X131234093Y-68496685D01*
X131266601Y-68333258D01*
X131330367Y-68179313D01*
X131422941Y-68040766D01*
X131540766Y-67922941D01*
X131679313Y-67830367D01*
X131833258Y-67766601D01*
X131996685Y-67734093D01*
X132163315Y-67734093D01*
X132326742Y-67766601D01*
G37*
G36*
X157726742Y-67766601D02*
G01*
X157880687Y-67830367D01*
X158019234Y-67922941D01*
X158137059Y-68040766D01*
X158229633Y-68179313D01*
X158293399Y-68333258D01*
X158325907Y-68496685D01*
X158325907Y-68663315D01*
X158293399Y-68826742D01*
X158229633Y-68980687D01*
X158137059Y-69119234D01*
X158019234Y-69237059D01*
X157880687Y-69329633D01*
X157726742Y-69393399D01*
X157563315Y-69425907D01*
X157396685Y-69425907D01*
X157233258Y-69393399D01*
X157079313Y-69329633D01*
X156940766Y-69237059D01*
X156822941Y-69119234D01*
X156730367Y-68980687D01*
X156666601Y-68826742D01*
X156634093Y-68663315D01*
X156634093Y-68496685D01*
X156666601Y-68333258D01*
X156730367Y-68179313D01*
X156822941Y-68040766D01*
X156940766Y-67922941D01*
X157079313Y-67830367D01*
X157233258Y-67766601D01*
X157396685Y-67734093D01*
X157563315Y-67734093D01*
X157726742Y-67766601D01*
G37*
G36*
X132326742Y-65226601D02*
G01*
X132480687Y-65290367D01*
X132619234Y-65382941D01*
X132737059Y-65500766D01*
X132829633Y-65639313D01*
X132893399Y-65793258D01*
X132925907Y-65956685D01*
X132925907Y-66123315D01*
X132893399Y-66286742D01*
X132829633Y-66440687D01*
X132737059Y-66579234D01*
X132619234Y-66697059D01*
X132480687Y-66789633D01*
X132326742Y-66853399D01*
X132163315Y-66885907D01*
X131996685Y-66885907D01*
X131833258Y-66853399D01*
X131679313Y-66789633D01*
X131540766Y-66697059D01*
X131422941Y-66579234D01*
X131330367Y-66440687D01*
X131266601Y-66286742D01*
X131234093Y-66123315D01*
X131234093Y-65956685D01*
X131266601Y-65793258D01*
X131330367Y-65639313D01*
X131422941Y-65500766D01*
X131540766Y-65382941D01*
X131679313Y-65290367D01*
X131833258Y-65226601D01*
X131996685Y-65194093D01*
X132163315Y-65194093D01*
X132326742Y-65226601D01*
G37*
G36*
X157726742Y-65226601D02*
G01*
X157880687Y-65290367D01*
X158019234Y-65382941D01*
X158137059Y-65500766D01*
X158229633Y-65639313D01*
X158293399Y-65793258D01*
X158325907Y-65956685D01*
X158325907Y-66123315D01*
X158293399Y-66286742D01*
X158229633Y-66440687D01*
X158137059Y-66579234D01*
X158019234Y-66697059D01*
X157880687Y-66789633D01*
X157726742Y-66853399D01*
X157563315Y-66885907D01*
X157396685Y-66885907D01*
X157233258Y-66853399D01*
X157079313Y-66789633D01*
X156940766Y-66697059D01*
X156822941Y-66579234D01*
X156730367Y-66440687D01*
X156666601Y-66286742D01*
X156634093Y-66123315D01*
X156634093Y-65956685D01*
X156666601Y-65793258D01*
X156730367Y-65639313D01*
X156822941Y-65500766D01*
X156940766Y-65382941D01*
X157079313Y-65290367D01*
X157233258Y-65226601D01*
X157396685Y-65194093D01*
X157563315Y-65194093D01*
X157726742Y-65226601D01*
G37*
G36*
X138103116Y-62554575D02*
G01*
X138285770Y-62590907D01*
X138457827Y-62662175D01*
X138612674Y-62765640D01*
X138744360Y-62897326D01*
X138847825Y-63052173D01*
X138919093Y-63224230D01*
X138955425Y-63406884D01*
X138955425Y-63593116D01*
X138919093Y-63775770D01*
X138847825Y-63947827D01*
X138744360Y-64102674D01*
X138612674Y-64234360D01*
X138457827Y-64337825D01*
X138285770Y-64409093D01*
X138103116Y-64445425D01*
X138010000Y-64450000D01*
X138008768Y-64450000D01*
X136711232Y-64450000D01*
X136710000Y-64450000D01*
X136616884Y-64445425D01*
X136434230Y-64409093D01*
X136262173Y-64337825D01*
X136107326Y-64234360D01*
X135975640Y-64102674D01*
X135872175Y-63947827D01*
X135800907Y-63775770D01*
X135764575Y-63593116D01*
X135764575Y-63406884D01*
X135800907Y-63224230D01*
X135872175Y-63052173D01*
X135975640Y-62897326D01*
X136107326Y-62765640D01*
X136262173Y-62662175D01*
X136434230Y-62590907D01*
X136616884Y-62554575D01*
X136710000Y-62550000D01*
X138010000Y-62550000D01*
X138103116Y-62554575D01*
G37*
G36*
X150603116Y-62554575D02*
G01*
X150785770Y-62590907D01*
X150957827Y-62662175D01*
X151112674Y-62765640D01*
X151244360Y-62897326D01*
X151347825Y-63052173D01*
X151419093Y-63224230D01*
X151455425Y-63406884D01*
X151455425Y-63593116D01*
X151419093Y-63775770D01*
X151347825Y-63947827D01*
X151244360Y-64102674D01*
X151112674Y-64234360D01*
X150957827Y-64337825D01*
X150785770Y-64409093D01*
X150603116Y-64445425D01*
X150510000Y-64450000D01*
X150508768Y-64450000D01*
X149211232Y-64450000D01*
X149210000Y-64450000D01*
X149116884Y-64445425D01*
X148934230Y-64409093D01*
X148762173Y-64337825D01*
X148607326Y-64234360D01*
X148475640Y-64102674D01*
X148372175Y-63947827D01*
X148300907Y-63775770D01*
X148264575Y-63593116D01*
X148264575Y-63406884D01*
X148300907Y-63224230D01*
X148372175Y-63052173D01*
X148475640Y-62897326D01*
X148607326Y-62765640D01*
X148762173Y-62662175D01*
X148934230Y-62590907D01*
X149116884Y-62554575D01*
X149210000Y-62550000D01*
X150510000Y-62550000D01*
X150603116Y-62554575D01*
G37*
G36*
X132326742Y-62686601D02*
G01*
X132480687Y-62750367D01*
X132619234Y-62842941D01*
X132737059Y-62960766D01*
X132829633Y-63099313D01*
X132893399Y-63253258D01*
X132925907Y-63416685D01*
X132925907Y-63583315D01*
X132893399Y-63746742D01*
X132829633Y-63900687D01*
X132737059Y-64039234D01*
X132619234Y-64157059D01*
X132480687Y-64249633D01*
X132326742Y-64313399D01*
X132163315Y-64345907D01*
X131996685Y-64345907D01*
X131833258Y-64313399D01*
X131679313Y-64249633D01*
X131540766Y-64157059D01*
X131422941Y-64039234D01*
X131330367Y-63900687D01*
X131266601Y-63746742D01*
X131234093Y-63583315D01*
X131234093Y-63416685D01*
X131266601Y-63253258D01*
X131330367Y-63099313D01*
X131422941Y-62960766D01*
X131540766Y-62842941D01*
X131679313Y-62750367D01*
X131833258Y-62686601D01*
X131996685Y-62654093D01*
X132163315Y-62654093D01*
X132326742Y-62686601D01*
G37*
G36*
X157726742Y-62686601D02*
G01*
X157880687Y-62750367D01*
X158019234Y-62842941D01*
X158137059Y-62960766D01*
X158229633Y-63099313D01*
X158293399Y-63253258D01*
X158325907Y-63416685D01*
X158325907Y-63583315D01*
X158293399Y-63746742D01*
X158229633Y-63900687D01*
X158137059Y-64039234D01*
X158019234Y-64157059D01*
X157880687Y-64249633D01*
X157726742Y-64313399D01*
X157563315Y-64345907D01*
X157396685Y-64345907D01*
X157233258Y-64313399D01*
X157079313Y-64249633D01*
X156940766Y-64157059D01*
X156822941Y-64039234D01*
X156730367Y-63900687D01*
X156666601Y-63746742D01*
X156634093Y-63583315D01*
X156634093Y-63416685D01*
X156666601Y-63253258D01*
X156730367Y-63099313D01*
X156822941Y-62960766D01*
X156940766Y-62842941D01*
X157079313Y-62750367D01*
X157233258Y-62686601D01*
X157396685Y-62654093D01*
X157563315Y-62654093D01*
X157726742Y-62686601D01*
G37*
G36*
X132930000Y-61810000D02*
G01*
X131230000Y-61810000D01*
X131230000Y-60110000D01*
X132930000Y-60110000D01*
X132930000Y-61810000D01*
G37*
G36*
X158330000Y-61810000D02*
G01*
X156630000Y-61810000D01*
X156630000Y-60110000D01*
X158330000Y-60110000D01*
X158330000Y-61810000D01*
G37*
M02*
