M48
; DRILL file {KiCad 9.0.3} date 2025-08-23T20:32:09+0530
; FORMAT={-:-/ absolute / metric / decimal}
; #@! TF.CreationDate,2025-08-23T20:32:09+05:30
; #@! TF.GenerationSoftware,Kicad,Pcbnew,9.0.3
; #@! TF.FileFunction,Plated,1,2,PTH
FMAT,2
METRIC
; #@! TA.AperFunction,Plated,PTH,ComponentDrill
T1C0.800
; #@! TA.AperFunction,Plated,PTH,ComponentDrill
T2C0.900
; #@! TA.AperFunction,Plated,PTH,ComponentDrill
T3C1.000
; #@! TA.AperFunction,Plated,PTH,ComponentDrill
T4C1.300
%
G90
G05
T1
X138.37Y-76.59
X138.37Y-79.13
X138.37Y-81.67
X138.37Y-84.21
X138.37Y-86.75
X138.37Y-89.29
X138.37Y-91.83
X138.37Y-94.37
X145.99Y-76.59
X145.99Y-79.13
X145.99Y-81.67
X145.99Y-84.21
X145.99Y-86.75
X145.99Y-89.29
X145.99Y-91.83
X145.99Y-94.37
T2
X150.03Y-78.28
X152.57Y-78.28
T3
X132.08Y-60.96
X132.08Y-63.5
X132.08Y-66.04
X132.08Y-68.58
X132.08Y-71.12
X132.08Y-73.66
X132.08Y-76.2
X132.08Y-78.74
X132.08Y-81.28
X132.08Y-83.82
X132.08Y-86.36
X132.08Y-88.9
X132.08Y-91.44
X132.08Y-93.98
X132.08Y-96.52
X152.4Y-84.31
X152.4Y-86.85
X152.4Y-89.39
X152.4Y-93.98
X152.4Y-96.52
X157.48Y-60.96
X157.48Y-63.5
X157.48Y-66.04
X157.48Y-68.58
X157.48Y-71.12
X157.48Y-73.66
X157.48Y-76.2
X157.48Y-78.74
X157.48Y-81.28
X157.48Y-83.82
X157.48Y-86.36
X157.48Y-88.9
X157.48Y-91.44
X157.48Y-93.98
X157.48Y-96.52
T4
X137.36Y-63.5
X137.36Y-68.5
X149.86Y-63.5
X149.86Y-68.5
M30
