%TF.GenerationSoftware,KiCad,Pcbnew,9.0.3*%
%TF.CreationDate,2025-08-23T20:31:56+05:30*%
%TF.ProjectId,Design1,44657369-676e-4312-9e6b-696361645f70,rev?*%
%TF.SameCoordinates,Original*%
%TF.FileFunction,Copper,L2,Bot*%
%TF.FilePolarity,Positive*%
%FSLAX46Y46*%
G04 Gerber Fmt 4.6, Leading zero omitted, Abs format (unit mm)*
G04 Created by KiCad (PCBNEW 9.0.3) date 2025-08-23 20:31:56*
%MOMM*%
%LPD*%
G01*
G04 APERTURE LIST*
G04 Aperture macros list*
%AMRoundRect*
0 Rectangle with rounded corners*
0 $1 Rounding radius*
0 $2 $3 $4 $5 $6 $7 $8 $9 X,Y pos of 4 corners*
0 Add a 4 corners polygon primitive as box body*
4,1,4,$2,$3,$4,$5,$6,$7,$8,$9,$2,$3,0*
0 Add four circle primitives for the rounded corners*
1,1,$1+$1,$2,$3*
1,1,$1+$1,$4,$5*
1,1,$1+$1,$6,$7*
1,1,$1+$1,$8,$9*
0 Add four rect primitives between the rounded corners*
20,1,$1+$1,$2,$3,$4,$5,0*
20,1,$1+$1,$4,$5,$6,$7,0*
20,1,$1+$1,$6,$7,$8,$9,0*
20,1,$1+$1,$8,$9,$2,$3,0*%
G04 Aperture macros list end*
%TA.AperFunction,ComponentPad*%
%ADD10R,1.700000X1.700000*%
%TD*%
%TA.AperFunction,ComponentPad*%
%ADD11C,1.700000*%
%TD*%
%TA.AperFunction,ComponentPad*%
%ADD12O,3.200000X1.900000*%
%TD*%
%TA.AperFunction,ComponentPad*%
%ADD13C,1.600000*%
%TD*%
%TA.AperFunction,ComponentPad*%
%ADD14RoundRect,0.250000X-0.550000X-0.550000X0.550000X-0.550000X0.550000X0.550000X-0.550000X0.550000X0*%
%TD*%
%TA.AperFunction,ComponentPad*%
%ADD15C,1.800000*%
%TD*%
%TA.AperFunction,ComponentPad*%
%ADD16R,1.800000X1.800000*%
%TD*%
%TA.AperFunction,Conductor*%
%ADD17C,0.700000*%
%TD*%
%TA.AperFunction,Conductor*%
%ADD18C,0.250000*%
%TD*%
%TA.AperFunction,Conductor*%
%ADD19C,0.500000*%
%TD*%
%TA.AperFunction,Conductor*%
%ADD20C,0.400000*%
%TD*%
G04 APERTURE END LIST*
D10*
%TO.P,J3,1,Pin_1*%
%TO.N,/3V3*%
X132080000Y-60960000D03*
D11*
%TO.P,J3,2,Pin_2*%
%TO.N,/GND*%
X132080000Y-63500000D03*
%TO.P,J3,3,Pin_3*%
%TO.N,/TX*%
X132080000Y-66040000D03*
%TO.P,J3,4,Pin_4*%
%TO.N,/RX*%
X132080000Y-68580000D03*
%TO.P,J3,5,Pin_5*%
%TO.N,/D8*%
X132080000Y-71120000D03*
%TO.P,J3,6,Pin_6*%
%TO.N,/D7*%
X132080000Y-73660000D03*
%TO.P,J3,7,Pin_7*%
%TO.N,/D6*%
X132080000Y-76200000D03*
%TO.P,J3,8,Pin_8*%
%TO.N,/D5*%
X132080000Y-78740000D03*
%TO.P,J3,9,Pin_9*%
%TO.N,/GND*%
X132080000Y-81280000D03*
%TO.P,J3,10,Pin_10*%
%TO.N,/3V3*%
X132080000Y-83820000D03*
%TO.P,J3,11,Pin_11*%
%TO.N,/D4*%
X132080000Y-86360000D03*
%TO.P,J3,12,Pin_12*%
%TO.N,/D3*%
X132080000Y-88900000D03*
%TO.P,J3,13,Pin_13*%
%TO.N,/D2*%
X132080000Y-91440000D03*
%TO.P,J3,14,Pin_14*%
%TO.N,/D1*%
X132080000Y-93980000D03*
%TO.P,J3,15,Pin_15*%
%TO.N,/D0*%
X132080000Y-96520000D03*
%TD*%
%TO.P,J4,15,Pin_15*%
%TO.N,/A0*%
X157480000Y-96520000D03*
%TO.P,J4,14,Pin_14*%
%TO.N,/RSV*%
X157480000Y-93980000D03*
%TO.P,J4,13,Pin_13*%
%TO.N,/RSU*%
X157480000Y-91440000D03*
%TO.P,J4,12,Pin_12*%
%TO.N,/SD3*%
X157480000Y-88900000D03*
%TO.P,J4,11,Pin_11*%
%TO.N,/SD2*%
X157480000Y-86360000D03*
%TO.P,J4,10,Pin_10*%
%TO.N,/SD1*%
X157480000Y-83820000D03*
%TO.P,J4,9,Pin_9*%
%TO.N,/CMD*%
X157480000Y-81280000D03*
%TO.P,J4,8,Pin_8*%
%TO.N,/SO0*%
X157480000Y-78740000D03*
%TO.P,J4,7,Pin_7*%
%TO.N,/CLK*%
X157480000Y-76200000D03*
%TO.P,J4,6,Pin_6*%
%TO.N,/GND*%
X157480000Y-73660000D03*
%TO.P,J4,5,Pin_5*%
%TO.N,/3V3*%
X157480000Y-71120000D03*
%TO.P,J4,4,Pin_4*%
%TO.N,/EN*%
X157480000Y-68580000D03*
%TO.P,J4,3,Pin_3*%
%TO.N,/RST*%
X157480000Y-66040000D03*
%TO.P,J4,2,Pin_2*%
%TO.N,/GND*%
X157480000Y-63500000D03*
D10*
%TO.P,J4,1,Pin_1*%
%TO.N,/VIN*%
X157480000Y-60960000D03*
%TD*%
D12*
%TO.P,SW1,2,2*%
%TO.N,/GND*%
X149860000Y-68500000D03*
X137360000Y-68500000D03*
%TO.P,SW1,1,1*%
%TO.N,/D2*%
X149860000Y-63500000D03*
X137360000Y-63500000D03*
%TD*%
D10*
%TO.P,J2,1,Pin_1*%
%TO.N,/3V3*%
X152400000Y-84310000D03*
D11*
%TO.P,J2,2,Pin_2*%
%TO.N,/GND*%
X152400000Y-86850000D03*
%TO.P,J2,3,Pin_3*%
%TO.N,/A0*%
X152400000Y-89390000D03*
%TD*%
D10*
%TO.P,J1,1,Pin_1*%
%TO.N,Net-(J1-Pin_1)*%
X152400000Y-93980000D03*
D11*
%TO.P,J1,2,Pin_2*%
%TO.N,/VIN*%
X152400000Y-96520000D03*
%TD*%
D13*
%TO.P,U2,16,O1*%
%TO.N,Net-(J1-Pin_1)*%
X145990000Y-76590000D03*
%TO.P,U2,15,O2*%
%TO.N,unconnected-(U2-O2-Pad15)*%
X145990000Y-79130000D03*
%TO.P,U2,14,O3*%
%TO.N,unconnected-(U2-O3-Pad14)*%
X145990000Y-81670000D03*
%TO.P,U2,13,O4*%
%TO.N,unconnected-(U2-O4-Pad13)*%
X145990000Y-84210000D03*
%TO.P,U2,12,O5*%
%TO.N,unconnected-(U2-O5-Pad12)*%
X145990000Y-86750000D03*
%TO.P,U2,11,O6*%
%TO.N,unconnected-(U2-O6-Pad11)*%
X145990000Y-89290000D03*
%TO.P,U2,10,O7*%
%TO.N,unconnected-(U2-O7-Pad10)*%
X145990000Y-91830000D03*
%TO.P,U2,9,COM*%
%TO.N,/VIN*%
X145990000Y-94370000D03*
%TO.P,U2,8,GND*%
%TO.N,/GND*%
X138370000Y-94370000D03*
%TO.P,U2,7,I7*%
%TO.N,unconnected-(U2-I7-Pad7)*%
X138370000Y-91830000D03*
%TO.P,U2,6,I6*%
%TO.N,unconnected-(U2-I6-Pad6)*%
X138370000Y-89290000D03*
%TO.P,U2,5,I5*%
%TO.N,unconnected-(U2-I5-Pad5)*%
X138370000Y-86750000D03*
%TO.P,U2,4,I4*%
%TO.N,unconnected-(U2-I4-Pad4)*%
X138370000Y-84210000D03*
%TO.P,U2,3,I3*%
%TO.N,unconnected-(U2-I3-Pad3)*%
X138370000Y-81670000D03*
%TO.P,U2,2,I2*%
%TO.N,unconnected-(U2-I2-Pad2)*%
X138370000Y-79130000D03*
D14*
%TO.P,U2,1,I1*%
%TO.N,/D1*%
X138370000Y-76590000D03*
%TD*%
D15*
%TO.P,D1,2,A*%
%TO.N,/D3*%
X152570000Y-78280000D03*
D16*
%TO.P,D1,1,K*%
%TO.N,/GND*%
X150030000Y-78280000D03*
%TD*%
D17*
%TO.N,/GND*%
X134620000Y-71240000D02*
X134620000Y-90620000D01*
X137360000Y-68500000D02*
X134620000Y-71240000D01*
X134620000Y-90620000D02*
X138370000Y-94370000D01*
D18*
%TO.N,/D2*%
X130904000Y-90264000D02*
X132080000Y-91440000D01*
X130904000Y-73172884D02*
X130904000Y-90264000D01*
X133644000Y-71407116D02*
X132567116Y-72484000D01*
X132567116Y-72484000D02*
X131592884Y-72484000D01*
X133644000Y-67216000D02*
X133644000Y-71407116D01*
X137360000Y-63500000D02*
X133644000Y-67216000D01*
X131592884Y-72484000D02*
X130904000Y-73172884D01*
D17*
%TO.N,/3V3*%
X144780000Y-71120000D02*
X157480000Y-71120000D01*
X144780000Y-63500000D02*
X144780000Y-71120000D01*
X137188635Y-60960000D02*
X142240000Y-60960000D01*
D19*
X137173422Y-60944787D02*
X137188635Y-60960000D01*
D17*
X132095213Y-60944787D02*
X137173422Y-60944787D01*
X142240000Y-60960000D02*
X144780000Y-63500000D01*
D19*
X132080000Y-60960000D02*
X132095213Y-60944787D01*
D20*
%TO.N,/A0*%
X152400000Y-91440000D02*
X152400000Y-89390000D01*
X157480000Y-96520000D02*
X152400000Y-91440000D01*
D17*
%TO.N,/GND*%
X152480000Y-68500000D02*
X149860000Y-68500000D01*
X157480000Y-63500000D02*
X152480000Y-68500000D01*
D18*
%TO.N,/D3*%
X132080000Y-89672405D02*
X132080000Y-88900000D01*
X139700000Y-96520000D02*
X138927595Y-96520000D01*
X138676000Y-90416000D02*
X139700000Y-91440000D01*
X136134199Y-90414201D02*
X136135998Y-90416000D01*
X138927595Y-96520000D02*
X132080000Y-89672405D01*
X136134199Y-84845801D02*
X136134199Y-90414201D01*
X138184000Y-82796000D02*
X136134199Y-84845801D01*
X148054000Y-82796000D02*
X138184000Y-82796000D01*
X136135998Y-90416000D02*
X138676000Y-90416000D01*
X139700000Y-91440000D02*
X139700000Y-96520000D01*
X152570000Y-78280000D02*
X148054000Y-82796000D01*
D17*
%TO.N,/3V3*%
X152400000Y-84310000D02*
X154940000Y-81770000D01*
X154940000Y-81770000D02*
X154940000Y-73660000D01*
X154940000Y-73660000D02*
X157480000Y-71120000D01*
%TD*%
M02*
